<svg viewBox="0 0 121 120" xmlns="http://www.w3.org/2000/svg" fill-rule="evenodd" clip-rule="evenodd" stroke-linejoin="round" stroke-miterlimit="2"><path d="M64.826 120.028H7.353a6.623 6.623 0 01-6.623-6.623V6.65A6.622 6.622 0 017.353.028h106.754a6.623 6.623 0 016.623 6.623v106.754a6.623 6.623 0 01-6.623 6.623H83.528v-46.47h15.598l2.336-18.112H83.528V43.884c0-5.243 1.456-8.816 8.975-8.816l9.59-.004V18.866c-1.659-.22-7.351-.713-13.975-.713-13.827 0-23.293 8.44-23.293 23.939v13.355H49.187v18.111h15.639v46.47z" fill="#fff"/></svg>