<svg viewBox="0 0 148 120" xmlns="http://www.w3.org/2000/svg" fill-rule="evenodd" clip-rule="evenodd" stroke-linejoin="round" stroke-miterlimit="2"><path d="M147.73 14.247a60.582 60.582 0 01-17.4 4.77c6.256-3.749 11.059-9.686 13.32-16.76a60.669 60.669 0 01-19.236 7.352A30.257 30.257 0 00102.3.042c-16.73 0-30.295 13.564-30.295 30.293 0 2.375.268 4.687.785 6.904-25.178-1.263-47.5-13.324-62.442-31.652a30.157 30.157 0 00-4.102 15.23c0 10.51 5.35 19.782 13.478 25.215a30.176 30.176 0 01-13.722-3.789C6 42.37 6 42.497 6 42.624c0 14.678 10.443 26.922 24.301 29.705a30.35 30.35 0 01-13.68.52c3.854 12.035 15.041 20.793 28.298 21.038a60.786 60.786 0 01-37.623 12.968c-2.445 0-4.857-.144-7.227-.423 13.406 8.595 29.33 13.61 46.439 13.61 55.722 0 86.192-46.161 86.192-86.193 0-1.314-.03-2.62-.088-3.92a61.571 61.571 0 0015.117-15.682" fill="#fff" fill-rule="nonzero"/></svg>